<svg width="945" height="226" xmlns="http://www.w3.org/2000/svg" version="1.1">
 <!-- Generator: Adobe Illustrator 28.7.1, SVG Export Plug-In . SVG Version: 1.2.0 Build 142)  -->

 <g>
  <title>Layer 1</title>
  <g id="svg_1">
   <g id="Capa_1">
    <g id="svg_2">
     <path class="cls-1" d="m486.98,72.83c0,-45.36 -39.04,-45.22 -64.85,-45.22l-116.63,-0.14c-8.63,0 -15.63,7 -15.63,15.63l0,1.34c0,8.63 7,15.63 15.63,15.63l128.38,0c12.52,0 20.72,2.89 20.72,13.5l0,5.46c0,10.57 -7.63,13.5 -20.72,13.5l-124.07,0c-10.06,0 -18.21,8.15 -18.21,18.21l0,63.2c0,8.84 7.17,16.01 16.01,16.01l1.39,0c8.32,0 15.07,-6.75 15.07,-15.07l0,-45.54c0,-2.39 1.94,-4.32 4.32,-4.32l93.74,0c24.13,0 64.84,-0.51 64.84,-44.97l0,-7.22l0.01,0z" fill="#3e80c2" id="svg_3"/>
     <path class="cls-1" d="m517.84,144.6c0,45.36 39.04,45.22 64.85,45.22l116.63,0.14c8.63,0 15.63,-7 15.63,-15.63l0,-1.34c0,-8.63 -7,-15.63 -15.63,-15.63l-128.38,0c-11.12,0 -20.72,-2.89 -20.72,-13.5l0,-70.27c0,-10.62 11.3,-13.5 20.72,-13.5l128.38,0c8.63,0 15.63,-7 15.63,-15.63l0,-1.34c0,-8.63 -7,-15.63 -15.63,-15.63l-116.63,0.14c-25.81,0 -64.85,-0.14 -64.85,45.22l0,71.77l0,-0.02z" fill="#3e80c2" id="svg_4"/>
     <path class="cls-1" d="m938.27,180.13c0.03,-0.07 0.06,-0.15 0.09,-0.22c3.09,-7.27 -3.64,-12.82 -8.29,-15.64l-2.09,-1.09l0,0l-1.84,-0.96l0,0s-71.13,-37.19 -71.13,-37.19l19.51,0c24.13,0 64.84,-0.51 64.84,-44.97l0,-7.22c0.01,-45.36 -39.02,-45.22 -64.84,-45.22l-116.63,-0.14c-8.63,0 -15.63,7 -15.63,15.63l0,1.34c0,8.63 7,15.63 15.63,15.63l128.38,0c9.67,0 20.72,2.89 20.72,13.5l0,5.46c0,10.57 -9.06,13.5 -20.72,13.5l-124.07,0c-10.06,0 -18.21,8.15 -18.21,18.21l0,63.2c0,8.84 7.17,16.01 16.01,16.01l1.39,0c8.32,0 15.07,-6.75 15.07,-15.07l0,-45.54c0,-2.39 1.94,-4.32 4.32,-4.32l1.53,0c3.43,0 6.79,0.89 9.77,2.59l100.12,53.73c3.28,1.87 5.95,3.39 8.31,4.62c11.77,6.43 32.9,4.91 37.75,-5.83l0.01,-0.01z" fill="#3e80c2" id="svg_5"/>
     <g id="svg_6">
      <path class="cls-2" d="m193.74,22.83l-0.14,0.11c-4.47,3.4 -5.82,9.62 -3,14.47c7.25,12.47 11.14,27.14 10.41,42.77c-1.86,39.5 -33.83,71.73 -73.32,73.89c-30.4,1.66 -57.25,-14.15 -71.44,-38.29c-2.86,-4.87 -8.91,-6.82 -14.1,-4.59l-0.18,0.08c14.01,32.67 47.09,55.21 85.25,53.58c45.53,-1.95 82.55,-38.95 84.53,-84.47c0.94,-21.67 -5.92,-41.69 -18,-57.54l-0.01,-0.01z" fill="#42ac48" id="svg_7"/>
      <path class="cls-2" d="m121.56,145.67c39.05,0.98 70.75,-29.67 71.04,-68.73c0.12,-15.97 -5.18,-30.7 -14.15,-42.47l0,0c-4.4,3.35 -5.71,9.39 -3.1,14.27c4.51,8.45 7.03,18.14 6.9,28.42c-0.38,30.76 -24.92,56.43 -55.64,58.09c-22.26,1.2 -42,-9.95 -53,-27.22c-2.97,-4.67 -8.86,-6.52 -13.95,-4.34l-0.02,0c10.37,24.19 34.11,41.29 61.92,41.99l0,-0.01z" fill="#42ac48" id="svg_8"/>
     </g>
     <path class="cls-1" d="m246.22,103.93c-13.55,-22.88 -9.19,-51.4 8.89,-69.3c3.34,-3.3 4.55,-8.24 2.79,-12.59c-1.86,-4.6 -3.95,-9.08 -6.25,-13.43c-2.72,-5.13 -8.8,-7.47 -14.26,-5.48l-38.08,13.85c13.54,17.28 21.33,39.27 20.45,63.12c-1.86,49.91 -42.34,90.63 -92.24,92.74c-41.61,1.76 -77.69,-22.85 -92.94,-58.5l-30.16,27.53c-4.25,3.88 -5.01,10.29 -1.82,15.08c2.18,3.26 4.48,6.44 6.91,9.51c2.91,3.68 7.79,5.04 12.31,3.78c4.85,-1.35 9.96,-2.07 15.24,-2.07c26.6,0 48.92,18.28 55.1,42.96c1.14,4.56 4.78,8.12 9.42,8.83c7.1,1.07 14.36,1.63 21.75,1.63s14.69,-0.56 21.8,-1.64c4.64,-0.7 8.24,-4.28 9.39,-8.83c1.23,-4.89 3.14,-9.7 5.76,-14.29c13.17,-23.1 40.09,-33.43 64.59,-26.59c4.52,1.26 9.41,-0.13 12.32,-3.81c9,-11.37 16.33,-24.11 21.63,-37.87c1.69,-4.39 0.37,-9.29 -3.03,-12.54c-3.64,-3.49 -6.87,-7.53 -9.57,-12.08l0,-0.01z" fill="#3e80c2" id="svg_9"/>
    </g>
   </g>
  </g>
 </g>
</svg>